<svg width="1091" height="682" viewBox="0 0 1091 682" fill="none" xmlns="http://www.w3.org/2000/svg">
<g clip-path="url(#clip0_26_867)">
<path d="M326.593 133.37C326.593 184.762 284.812 226.355 233.187 226.355C181.562 226.355 139.781 184.762 139.781 133.37C139.781 81.9774 181.562 40.3846 233.187 40.3846C284.812 40.3846 326.593 81.9774 326.593 133.37Z" fill="#E1ECF5"/>
<path d="M1120 462.778V570.135C1120 640.691 1062.69 697.963 991.594 697.963H128.406C116.813 697.963 105.438 696.656 95.375 693.39L665.656 125.68C697.375 94.1047 749.656 94.1047 781.375 125.68L1120 462.778Z" fill="#E0EBF4"/>
<path d="M796.031 697.745H128.406C116.812 697.745 105.437 696.438 95.375 693.172C40.0312 678.799 0 628.932 0 569.918V555.545L268.844 287.914C300.562 256.338 352.844 256.338 384.562 287.914L796.031 697.745Z" fill="#E6EFF5"/>
</g>
<defs>
<clipPath id="clip0_26_867">
<rect width="1091" height="682" fill="white"/>
</clipPath>
</defs>
</svg>
