<svg width="115" height="33" viewBox="0 0 115 33" fill="none" xmlns="http://www.w3.org/2000/svg">
<path d="M41.2015 21V10.8182H43.046V19.4538H47.5304V21H41.2015ZM52.3826 21.1491C51.6369 21.1491 50.9906 20.9851 50.4437 20.657C49.8968 20.3288 49.4726 19.8698 49.171 19.2798C48.8727 18.6899 48.7235 18.0005 48.7235 17.2116C48.7235 16.4228 48.8727 15.7318 49.171 15.1385C49.4726 14.5452 49.8968 14.0845 50.4437 13.7564C50.9906 13.4283 51.6369 13.2642 52.3826 13.2642C53.1284 13.2642 53.7747 13.4283 54.3216 13.7564C54.8684 14.0845 55.291 14.5452 55.5893 15.1385C55.8909 15.7318 56.0417 16.4228 56.0417 17.2116C56.0417 18.0005 55.8909 18.6899 55.5893 19.2798C55.291 19.8698 54.8684 20.3288 54.3216 20.657C53.7747 20.9851 53.1284 21.1491 52.3826 21.1491ZM52.3926 19.7074C52.7969 19.7074 53.135 19.5964 53.4068 19.3743C53.6786 19.1489 53.8807 18.8473 54.0133 18.4695C54.1492 18.0916 54.2172 17.6707 54.2172 17.2067C54.2172 16.7393 54.1492 16.3168 54.0133 15.9389C53.8807 15.5578 53.6786 15.2545 53.4068 15.0291C53.135 14.8037 52.7969 14.6911 52.3926 14.6911C51.9783 14.6911 51.6336 14.8037 51.3585 15.0291C51.0867 15.2545 50.8829 15.5578 50.747 15.9389C50.6144 16.3168 50.5481 16.7393 50.5481 17.2067C50.5481 17.6707 50.6144 18.0916 50.747 18.4695C50.8829 18.8473 51.0867 19.1489 51.3585 19.3743C51.6336 19.5964 51.9783 19.7074 52.3926 19.7074ZM60.8903 24.0227C60.244 24.0227 59.6888 23.9349 59.2248 23.7592C58.7608 23.5869 58.3879 23.3549 58.1062 23.0632C57.8245 22.7715 57.6289 22.4484 57.5195 22.0938L59.1403 21.701C59.2132 21.8501 59.3192 21.9976 59.4585 22.1435C59.5977 22.2926 59.7849 22.4152 60.0202 22.5114C60.2589 22.6108 60.5588 22.6605 60.9201 22.6605C61.4305 22.6605 61.8531 22.5362 62.1879 22.2876C62.5226 22.0424 62.69 21.638 62.69 21.0746V19.6278H62.6005C62.5077 19.8134 62.3718 20.004 62.1928 20.1996C62.0172 20.3951 61.7835 20.5592 61.4918 20.6918C61.2035 20.8243 60.8406 20.8906 60.4031 20.8906C59.8164 20.8906 59.2844 20.7531 58.8072 20.478C58.3332 20.1996 57.9554 19.7853 57.6737 19.2351C57.3952 18.6816 57.256 17.9889 57.256 17.157C57.256 16.3184 57.3952 15.6108 57.6737 15.0341C57.9554 14.4541 58.3349 14.0149 58.8121 13.7166C59.2894 13.415 59.8214 13.2642 60.408 13.2642C60.8555 13.2642 61.2234 13.3404 61.5117 13.4929C61.8034 13.642 62.0354 13.8227 62.2077 14.0348C62.3801 14.2436 62.511 14.4408 62.6005 14.6264H62.6999V13.3636H64.4748V21.1243C64.4748 21.7772 64.319 22.3175 64.0075 22.745C63.6959 23.1726 63.27 23.4924 62.7298 23.7045C62.1895 23.9167 61.5763 24.0227 60.8903 24.0227ZM60.9052 19.4787C61.2863 19.4787 61.6112 19.3859 61.8796 19.2003C62.1481 19.0147 62.3519 18.7479 62.4911 18.3999C62.6303 18.0518 62.6999 17.6342 62.6999 17.147C62.6999 16.6664 62.6303 16.2455 62.4911 15.8842C62.3552 15.523 62.1531 15.2429 61.8846 15.044C61.6194 14.8419 61.293 14.7408 60.9052 14.7408C60.5041 14.7408 60.1694 14.8452 59.9009 15.054C59.6325 15.2628 59.4303 15.5495 59.2944 15.9141C59.1585 16.2753 59.0906 16.6863 59.0906 17.147C59.0906 17.6143 59.1585 18.0237 59.2944 18.375C59.4336 18.723 59.6374 18.9948 59.9059 19.1903C60.1777 19.3826 60.5108 19.4787 60.9052 19.4787ZM69.6502 21.1491C68.9045 21.1491 68.2582 20.9851 67.7113 20.657C67.1644 20.3288 66.7402 19.8698 66.4386 19.2798C66.1403 18.6899 65.9911 18.0005 65.9911 17.2116C65.9911 16.4228 66.1403 15.7318 66.4386 15.1385C66.7402 14.5452 67.1644 14.0845 67.7113 13.7564C68.2582 13.4283 68.9045 13.2642 69.6502 13.2642C70.396 13.2642 71.0423 13.4283 71.5891 13.7564C72.136 14.0845 72.5586 14.5452 72.8569 15.1385C73.1585 15.7318 73.3093 16.4228 73.3093 17.2116C73.3093 18.0005 73.1585 18.6899 72.8569 19.2798C72.5586 19.8698 72.136 20.3288 71.5891 20.657C71.0423 20.9851 70.396 21.1491 69.6502 21.1491ZM69.6602 19.7074C70.0645 19.7074 70.4026 19.5964 70.6744 19.3743C70.9461 19.1489 71.1483 18.8473 71.2809 18.4695C71.4168 18.0916 71.4847 17.6707 71.4847 17.2067C71.4847 16.7393 71.4168 16.3168 71.2809 15.9389C71.1483 15.5578 70.9461 15.2545 70.6744 15.0291C70.4026 14.8037 70.0645 14.6911 69.6602 14.6911C69.2459 14.6911 68.9012 14.8037 68.6261 15.0291C68.3543 15.2545 68.1504 15.5578 68.0146 15.9389C67.882 16.3168 67.8157 16.7393 67.8157 17.2067C67.8157 17.6707 67.882 18.0916 68.0146 18.4695C68.1504 18.8473 68.3543 19.1489 68.6261 19.3743C68.9012 19.5964 69.2459 19.7074 69.6602 19.7074Z" fill="#668FC2"/>
<path d="M0.5 29.1875H0V25.5625H0.5V21.9375H0V18.3125H0.5V14.6875H0V11.0625H0.5V7.4375H0V3.8125H0.5V2C0.5 1.17157 1.17157 0.5 2 0.5H3.98212V0H7.94641V0.5H11.9107V0H15.875V0.5H19.8393V0H23.8036V0.5H27.7678V0H31.7321V0.5H35.6964V0H39.6607V0.5H43.625V0H47.5893V0.5H51.5536V0H55.5179V0.5H59.4821V0H63.4464V0.5H67.4107V0H71.375V0.5H75.3393V0H79.3036V0.5H83.2679V0H87.2321V0.5H91.1964V0H95.1607V0.5H99.125V0H103.089V0.5H107.054V0H111.018V0.5H113C113.828 0.5 114.5 1.17157 114.5 2V3.8125H115V7.4375H114.5V11.0625H115V14.6875H114.5V18.3125H115V21.9375H114.5V25.5625H115V29.1875H114.5V31C114.5 31.8284 113.828 32.5 113 32.5H111.018V33H107.054V32.5H103.089V33H99.125V32.5H95.1607V33H91.1964V32.5H87.2322V33H83.2679V32.5H79.3036V33H75.3393V32.5H71.375V33H67.4107V32.5H63.4464V33H59.4822V32.5H55.5179V33H51.5536V32.5H47.5893V33H43.625V32.5H39.6607V33H35.6964V32.5H31.7321V33H27.7679V32.5H23.8036V33H19.8393V32.5H15.875V33H11.9107V32.5H7.94643V33H3.98215V32.5H2C1.17157 32.5 0.5 31.8284 0.5 31V29.1875Z" stroke="#8AAFDE" stroke-dasharray="4 4"/>
</svg>
